Coordinates
nRows=7
nColumns=24

# SIMM Motion File Header:
name Coordinates
datacolumns 24
datarows 7
otherdata 1
range 0.60433000000000003000 0.61033000000000004000
endheader
time	pelvis_tx	pelvis_ty	pelvis_tz	pelvis_tilt	pelvis_list	pelvis_rotation	hip_flexion_r	hip_adduction_r	hip_rotation_r	knee_angle_r	ankle_angle_r	subtalar_angle_r	mtp_angle_r	hip_flexion_l	hip_adduction_l	hip_rotation_l	knee_angle_l	ankle_angle_l	subtalar_angle_l	mtp_angle_l	lumbar_extension	lumbar_bending	lumbar_rotation
      0.60433000000000003000	      0.60891625214093792000	      0.86494519476743126000	     -0.24339236506134612000	      3.92998598639057620000	      0.35603783565774161000	     -3.81951322676575030000	    -14.59163772909162100000	     -2.38259738559109380000	      0.36717506643855485000	    -33.72613541975101700000	      2.00980810001520060000	      0.00000000000009921956	     -0.00000000000025942831	     22.51350815661510300000	      0.92124816186159886000	      7.47360061976540280000	    -23.53745804106104700000	     -3.02187500531040420000	     -0.00000000000005115473	      0.00000000000001627881	    -13.63424856519222700000	     -1.38815954615770340000	     15.68035716788171800000
      0.60533000000000003000	      0.61032685948689469000	      0.86509770762317328000	     -0.24353542238449152000	      3.95990445268963500000	      0.38794877514645948000	     -3.81975786214105550000	    -14.48523645098362400000	     -2.46096057843885730000	      0.28982057399731326000	    -34.04947707858539700000	      1.79676437381562630000	      0.00000000000009958668	     -0.00000000000026055569	     22.44185768666229900000	      0.97407717697749141000	      7.44829006609513300000	    -23.65453123276780900000	     -2.90474693871473950000	     -0.00000000000005115909	      0.00000000000001680917	    -13.65194570734800400000	     -1.42836113422327320000	     15.66223161375657500000
      0.60633000000000004000	      0.61173371746773186000	      0.86525207470243293000	     -0.24367657480129545000	      3.99026940982487320000	      0.41938785550040064000	     -3.81982747136924110000	    -14.37743773507005200000	     -2.53824404655820190000	      0.21281002248098749000	    -34.37307773159967900000	      1.58803249618557610000	      0.00000000000009995014	     -0.00000000000026166893	     22.36851357893396000000	      1.02588027839872710000	      7.42095921808545360000	    -23.76897984944462600000	     -2.78808416776961780000	     -0.00000000000005115715	      0.00000000000001733226	    -13.67047356749356800000	     -1.46829514000537190000	     15.64476839164010800000
      0.60733000000000004000	      0.61313682608344933000	      0.86540829600521008000	     -0.24381582231175788000	      4.02108085779629040000	      0.45035507671956498000	     -3.81972205445030700000	    -14.26824158135090100000	     -2.61444778994912670000	      0.13614341188957760000	    -34.69693737879384800000	      1.38361246712505090000	      0.00000000000010030994	     -0.00000000000026276804	     22.29347583343008700000	      1.07665746612530590000	      7.39160807573636450000	    -23.88080389109150300000	     -2.67188669247503840000	     -0.00000000000005114891	      0.00000000000001784810	    -13.68983214562892000000	     -1.50796156350399980000	     15.62796750153231600000
      0.60833000000000004000	      0.61453993469916679000	      0.86556451730798722000	     -0.24395506982222032000	      4.05189230576770760000	      0.48132229793872899000	     -3.81961663753137250000	    -14.15904542763175100000	     -2.69065153334005110000	      0.05947680129816824300	    -35.02079702598801700000	      1.17919243806453000000	      0.00000000000010066975	     -0.00000000000026386714	     22.21843808792621300000	      1.12743465385188400000	      7.36225693338727450000	    -23.99262793273838000000	     -2.55568921718045900000	     -0.00000000000005114067	      0.00000000000001836393	    -13.70919072376426900000	     -1.54762798700262750000	     15.61116661142452400000
      0.60933000000000004000	      0.61593471641754138000	      0.86572261877455836000	     -0.24408943410707709000	      4.08215029099066040000	      0.51111919617079449000	     -3.81983741737878190000	    -14.04515087545845700000	     -2.76409957010739540000	     -0.01480719218696504300	    -35.34589846330214200000	      0.99356666425176343000	      0.00000000000010101070	     -0.00000000000026492886	     22.14146393332901400000	      1.17555474713443250000	      7.32843257411380480000	    -24.09905894164414200000	     -2.43830377889905580000	     -0.00000000000005116425	      0.00000000000001893052	    -13.72862367676630200000	     -1.58654122729422050000	     15.59639581043797700000
      0.61033000000000004000	      0.61732949813591609000	      0.86588072024112939000	     -0.24422379839193384000	      4.11240827621361320000	      0.54091609440285993000	     -3.82005819722619130000	    -13.93125632328516300000	     -2.83754760687474010000	     -0.08909118567209832500	    -35.67099990061626600000	      0.80794089043899675000	      0.00000000000010135166	     -0.00000000000026599059	     22.06448977873181500000	      1.22367484041698130000	      7.29460821484033510000	    -24.20548995054990400000	     -2.32091834061765260000	     -0.00000000000005118784	      0.00000000000001949710	    -13.74805662976833500000	     -1.62545446758581340000	     15.58162500945143200000
